<?xml version="1.0" encoding="utf-8"?>
<!-- Generator: Adobe Illustrator 23.0.3, SVG Export Plug-In . SVG Version: 6.00 Build 0)  -->
<svg version="1.1" id="Capa_1" xmlns="http://www.w3.org/2000/svg" xmlns:xlink="http://www.w3.org/1999/xlink" x="0px" y="0px"
	 viewBox="0 0 688.6 459.4" style="enable-background:new 0 0 688.6 459.4;" xml:space="preserve">
<style type="text/css">
	.st0{fill:#FFFFFF;}
</style>
<title>Artboard 1</title>
<g id="Janto_1_" transform="translate(5 64.083)">
	<g id="Group">
		<path id="Shape_1_" class="st0" d="M283.5,215.2c0-13,1.9-23.6,5.7-31.9s8.7-14.7,14.6-19.4c5.9-4.7,12.8-7.9,20.2-9.5
			c7.4-1.6,15-2.5,22.6-2.5c7.4,0,14.9,0.9,22.5,2.5c7.6,1.6,14.5,4.8,20.6,9.5c6.2,4.6,11.1,11.1,14.9,19.4
			c3.8,8.3,5.7,18.9,5.7,31.9l1.1,73.4c-11.9,0-21-2.5-27.5-7.6c-6.5-5.1-9.7-13.3-9.7-24.8l0.3-41.1c0-8.1-0.9-14.7-2.5-19.7
			c-1.6-4.9-3.9-8.9-6.6-11.6c-2.7-2.8-5.7-4.7-9.1-5.7c-3.2-1-6.6-1.4-9.9-1.4c-3.3,0-6.6,0.5-9.8,1.4c-3.2,1-6.2,2.9-8.8,5.7
			c-2.6,2.8-4.8,6.7-6.4,11.6c-1.6,4.9-2.5,11.5-2.5,19.7v45.2c0.2,5.9,0.4,10.6,0.4,14.3c0.1,3.7,0.2,6.6,0.4,8.8
			c0.2,2.4,0.4,4.1,0.6,5.3c-12.1,0-21.3-2.5-27.8-7.6c-6.4-5.1-9.7-13.3-9.7-24.8L283.5,215.2L283.5,215.2z M515.3,263
			c0,0.6,0.1,1.3,0.3,2.1c0.4,1.6,0.6,3,0.6,4.4c0,3.5-0.8,6.6-2.4,9.5c-1.6,2.8-3.7,5.2-6.4,7.1c-5.4,3.9-12.1,5.9-19.9,5.9
			c-6.6,0-13-1.5-19-4.4c-6.2-2.9-11.9-7.3-17-13.1c-5.1-5.8-9.1-13.1-12.1-21.7c-3-8.6-4.5-18.8-4.5-30.5l0.3-84.2
			c0-11.6,3.1-20,9.4-25c6.2-5.1,15.3-7.6,27.2-7.6c-0.2,1.4-0.4,3.2-0.6,5.6c-0.3,2.8-0.4,5.7-0.4,8.6c-0.1,3.6-0.1,8.3-0.1,14.1
			L471,152h39.2c0,8.8-2.4,15.8-7.3,21c-4.9,5.3-11.8,7.9-20.8,7.9H471l-0.3,41.4c0,8.1,0.7,15,2.2,20.6c1.4,5.6,3.4,10.1,6,13.6
			c5.3,6.6,12.1,9.9,20.5,9.9c3.5,0,7-0.5,10.5-1.4C511.7,264.2,513.6,263.6,515.3,263L515.3,263z M556.2,277.6
			c-5.2-3.3-9.7-7.5-13.6-12.3c-3.9-4.8-7.2-10.1-9.8-15.8c-3.3-7.8-5-16.3-4.9-24.8c0-6.8,1-13.2,2.9-19.3c1.9-6,4.6-11.6,7.9-16.6
			c3.5-5.1,7.7-9.6,12.5-13.6c4.8-4,10.2-7.2,16-9.5c3.9-1.6,7.9-2.8,12-3.8c4.2-1,8.5-1.5,12.9-1.4c6.7,0,13,1,19.1,2.9
			c6.2,1.9,11.7,4.6,16.8,8.1c10.3,7,18,16.3,23.1,28c3.3,8.1,4.9,16.5,4.9,25c0,13.2-3.6,25.1-10.8,35.5
			c-7.2,10.5-16.5,18.3-28.1,23.3c-8.2,3.3-16.5,4.9-25.1,4.9c-6.4,0-12.8-1-19-2.9C567,283.8,561.3,281.1,556.2,277.6z
			 M557.4,224.8c0,3.5,0.5,6.9,1.6,10.2c1.1,3.3,2.5,6.4,4.2,9.1c4.1,5.6,9.2,9.7,15.2,12.3c4.5,1.9,8.9,2.9,13.5,2.9
			c3.7,0,7.2-0.5,10.4-1.6c3.2-1.1,6.2-2.6,8.9-4.5c5.7-3.5,9.8-8.4,12.6-14.8c1.8-4.3,2.6-8.8,2.6-13.4c0-7.2-1.9-13.6-5.9-19.3
			c-3.8-5.5-9-9.9-15.2-12.6c-4.1-1.8-8.6-2.6-13.5-2.6c-7.2,0-13.7,1.9-19.3,5.9c-5.6,3.7-9.9,9-12.6,15.1
			c-0.8,2.1-1.4,4.3-1.9,6.4C557.6,220,557.4,222.3,557.4,224.8z M132,228.8v-7.2c0.1-0.3,0.1-0.6,0.1-0.9c0.2-1.7,0.3-3.4,0.6-5.1
			c1.4-9.3,4.6-17.8,9.7-25.6c8-12,18.8-20.4,32.6-25.1c10.2-3.5,20.6-4.8,31.3-2.9c17.2,2.9,31,11.4,41.4,25.4
			c6.4,8.6,10.5,18.7,11.7,29.3c0.4,3.6,0.6,7.2,0.6,10.8c0.1,17.3,0.2,34.5,0.4,51.7c0.1,3.5,0.4,6.9,0.6,10.4h-1.9
			c-0.3-0.1-0.6-0.1-0.8-0.1c-3.3-0.1-6.5-0.7-9.6-1.6c-7.1-2.3-12.3-6.6-15.2-13.6c-2-4.8-3-10-3-15.2c-0.1-10.9,0-21.8,0-32.6
			c0-1.4-0.1-2.7-0.1-4.1c-0.7-9.4-4.8-17.1-11.9-23.2c-5.4-4.8-12.2-7.7-19.4-8.2c-5.8-0.4-11.5,0.2-16.8,2.6
			c-13.3,5.9-22.9,19.7-20.5,36.3c1.5,10.4,6.7,18.6,15.7,24.3c6.7,4.2,14,5.8,21.8,5.7c6.2-0.1,12.4-0.2,18.7-0.3
			c0.4,0,0.6,0,0.9,0.1c0,0.1,0.1,0.2,0.1,0.4c0,5.6-0.6,11.1-2.9,16.3c-2.1,4.8-5.2,8.6-10.2,10.6c-4.3,1.9-8.8,2.4-13.5,2.1
			c-13.2-0.9-24.9-5.3-35.4-13.1c-6.7-5-12-11.4-16.3-18.5c-4.7-7.8-7.6-16.5-8.4-25.5C132.2,230.8,132.1,229.8,132,228.8z
			 M23,248.7c0.2-1.7,0.4-3.4,0.7-5.1c1.2-6.4,4.1-11.8,9.9-15.2c2.3-1.4,4.7-2.4,7.3-3.1c3.9-1.1,7.7-1.4,11.7-1.6
			c0.6,0,0.9,0.1,0.9,0.9l-0.4,22.8c-0.1,3.6-0.1,7.1-0.1,10.6c-0.1,2.9-0.1,5.8-0.1,8.6v1.1c1.1-0.3,2-0.4,2.9-0.7
			c10.4-3.6,16.6-11.1,18.6-21.8c0.7-3.7,0.9-7.6,0.9-11.4c0.1-8.4,0.1-16.8,0.1-25.3c0.1-10.4,0.1-20.9,0.1-31.3
			c0.1-10.5,0.1-21,0.1-31.5c0-5.1,0-10.2,0.1-15.3c0.1-5.3,1.1-10.5,3.6-15.3c2.6-4.8,6.7-7.7,11.7-9.5c5.1-1.8,10.4-2.4,15.7-2.4
			c0.1,0,0.3,0.1,0.5,0.1c-0.1,1.5-0.3,3-0.4,4.4c-0.2,3.8-0.5,7.6-0.5,11.4c-0.1,36,0,71.9-0.1,107.8c0,10.3-1.5,20.4-5.8,29.9
			c-6.8,15.1-17.8,25.8-33.6,31.2c-5.2,1.8-10.5,2.6-15.9,2.8c-0.3,0-0.6,0.1-0.9,0.1h-3.3c-0.2-0.1-0.4-0.1-0.6-0.1
			c-4.6-0.1-8.9-1.4-12.9-3.3c-5.6-2.7-9.4-6.8-10.1-13.2c-0.3-3.2-0.3-6.5-0.4-9.7c0-0.4-0.1-0.9-0.1-1.3
			C23,258.4,23,253.5,23,248.7z"/>
	</g>
</g>
<g id="TICKETING_SOFTWARE" transform="translate(5 98.6)">
	<path id="Shape_2_" class="st0" d="M51.7,283.7c1.2,0,1.2,1.5,0,1.5h-13l0,29.6c0,0.5-0.4,0.9-0.9,1c-0.4,0-0.9-0.3-0.9-1v-29.6H24
		c-1.2,0-1.2-1.5,0-1.5L51.7,283.7L51.7,283.7z M62.4,284.4c0-1.2,1.8-1.2,1.8,0v30.4c0,1.1-1.8,1.1-1.8,0L62.4,284.4L62.4,284.4z
		 M100.2,314.4c-8,4.1-17.8,1-21.9-7c-1.3-2.5-1.9-5.3-1.8-8.2c0.2-8.5,5.6-14.6,13.5-15.9c5.9-0.7,10.6,0.2,15,4.8
		c0.7,0.9-0.5,1.8-1.2,1c-4-4.4-8-4.8-13.5-4.1c-7.1,1.1-11.9,6.2-12.1,14.3c-0.3,11.1,11.2,18.7,21.4,13.6c1.8-0.9,3.5-2.3,4.7-3.9
		c0.7-1,2,0,1.3,1C104.1,311.9,102.3,313.4,100.2,314.4z M140,283.7c0.9-0.7,2.1,0.4,1.3,1.1l-15,13.2l15.8,16.5
		c0.9,0.8-0.5,1.9-1.2,1.1l-15.8-16.5l-6.7,5.9v10c0,0.5-0.3,0.8-0.9,0.8c-0.5,0-0.9-0.3-0.9-0.8v-30.7c0-0.5,0.4-0.9,0.9-0.9
		c0.5,0,0.8,0.4,0.9,0.8c0,0,0,0,0,0V303L140,283.7z M155,314h22.1c1.1,0,1.1,1.6,0,1.6h-22.4c-0.7,0-1.4-0.6-1.4-1.3c0,0,0,0,0,0
		v-29.2c0-0.7,0.6-1.3,1.4-1.3c0,0,0,0,0,0h22.5c1,0,1,1.5-0.1,1.5h-22.1v13.8h21.2c1.1,0,1.1,1.5,0,1.5h-21.2L155,314L155,314
		L155,314z M214.2,283.7c1.2,0,1.2,1.5,0,1.5h-13l0,29.6c0,0.5-0.4,0.9-0.9,1c-0.4,0-0.9-0.3-0.9-1v-29.6h-12.9
		c-1.2,0-1.2-1.5,0-1.5L214.2,283.7L214.2,283.7z M224.9,284.4c0-1.2,1.8-1.2,1.8,0v30.4c0,1.1-1.8,1.1-1.8,0V284.4z M264.4,284.5
		c0-1.2,1.7-1.2,1.7,0v30.1c0,1.2-1.1,1.2-1.8,0.4l-21.8-28.4v28c0,0.5-0.5,0.8-0.9,0.7c-0.4,0-0.7-0.3-0.7-0.7v-30.1
		c0-1.2,1.1-1.4,1.8-0.5l21.7,28.4C264.4,312.5,264.4,284.5,264.4,284.5z M294,316.1c-8.9-0.2-15.9-7.5-15.8-16.4c0-0.1,0-0.2,0-0.3
		c0.2-7.7,5.5-14.8,13.3-16.1c5-0.7,10.9,0.7,14.3,4.4c0.8,1-0.4,2-1.2,1.1c-3.1-3.4-8.4-4.7-12.9-4c-6.9,1.1-11.7,7.6-11.9,14.5
		c-0.2,8,6.1,14.7,14.1,14.9c0,0,0,0,0.1,0c4.4,0.1,9-1.9,11.5-5.5v-8.3h-10.7c-1,0-1-1.5,0-1.5h11.3c0.7,0,0.9,0.4,0.9,1v8.9
		c0,0.4-0.1,0.8-0.3,1.1C303.7,314,298.8,316.2,294,316.1L294,316.1z M338,308.5c1.2,4.1,6.9,5.7,10.6,6.1c0.7,0.1,1.6,0.2,2.3,0.2
		c5,0,12.6-1.7,12.6-7.9c0-11.5-26.5-1.1-26.5-14.6c0-4.9,4.8-7.4,9-8.3c1.4-0.2,2.8-0.4,4.2-0.4c4.8,0,11.7,1.1,13.7,6.3
		c0.5,1.2-1.1,1.5-1.4,0.6c-1.7-4.7-7.9-5.3-12.2-5.3c-0.4,0-0.8,0.1-1.2,0.1c-3.6,0.2-8.8,1.7-10.1,5.5c-0.2,0.5-0.3,1.1-0.3,1.7
		c0,11.5,26.5,1.5,26.5,14.5c0,7.4-8.2,9.4-14.3,9.4c-5.1,0-12.9-1.4-14.5-7.2C336.3,307.9,337.8,307.5,338,308.5z M375,299.2
		c0.2-7.8,5.1-14.6,12.9-15.8c1.8-0.2,3.6-0.2,5.4,0c7.9,1.2,13.3,8.1,13.5,15.8c0.3,9.6-7.2,17-15.9,17
		C382.3,316.2,374.7,308.8,375,299.2z M376.7,299.2c-0.2,8.6,6.5,15.4,14.2,15.4c7.8,0,14.6-6.9,14.3-15.4c-0.2-7-5-13.2-12.1-14.3
		c-1.6-0.2-3.3-0.2-4.9,0C381.1,286,376.8,292.2,376.7,299.2z M419.4,285.1c0-0.7,0.6-1.3,1.2-1.3h21.9c1,0,1.1,1.5,0,1.5h-21.6
		v15.1h20.5c1.1,0,1.1,1.5,0,1.5h-20.5v13.2c0,1.1-1.6,1.1-1.6,0.1V285.1z M479,283.7c1.2,0,1.2,1.5,0,1.5h-13l0,29.6
		c0,0.5-0.4,0.9-0.9,1c-0.4,0-0.9-0.3-0.9-1v-29.6h-12.9c-1.2,0-1.2-1.5,0-1.5L479,283.7L479,283.7z M500.9,313.1l12.6-25.5
		c0.3-0.6,1.4-0.7,1.8-0.1l12.6,25.5l12.9-29.3c0.5-1.1,2.1-0.4,1.6,0.6c-4.6,10.3-9.2,20.6-13.7,31c-0.3,0.7-1.3,0.6-1.6,0
		l-12.7-25.8l-12.7,25.8c-0.3,0.6-1.3,0.7-1.6,0c-4.5-10.4-9-20.7-13.7-31c-0.5-1.1,1.1-1.7,1.5-0.6L500.9,313.1z M555.4,306.7
		l-4.4,8.9c-0.5,1-1.9,0.2-1.5-0.8l15.9-31.3c0.2-0.3,0.4-0.4,0.7-0.5c0.3,0,0.6,0.2,0.7,0.5l16,31.3c0.5,1-1,1.8-1.5,0.8l-4.4-8.9
		C576.9,306.7,555.4,306.7,555.4,306.7z M566.2,285.4l-10,19.8h20L566.2,285.4L566.2,285.4z M595,303.9V315c0,1.1-1.6,1.1-1.6,0.1
		v-30.4c0-0.5,0.3-0.9,0.9-0.9h12.6c8.5,0,12.8,4.8,12.8,10.4c0,5.4-3.6,9.2-10.9,9.8l10.4,10.7c0.8,0.8-0.2,1.9-1,1.1l-11.3-11.9
		L595,303.9L595,303.9z M595,302.4h11.9c7.8,0,11.2-3.7,11-8.2c-0.1-4.9-4.2-8.9-11-8.9H595L595,302.4L595,302.4z M633,314h22.1
		c1.1,0,1.1,1.6,0,1.6h-22.5c-0.7,0-1.4-0.6-1.4-1.3c0,0,0,0,0,0v-29.2c0-0.7,0.6-1.3,1.4-1.3c0,0,0,0,0,0h22.5c1,0,1,1.5-0.1,1.5
		H633v13.8h21.2c1,0,1,1.5,0,1.5H633C633,300.6,633,314,633,314z"/>
</g>
<polygon class="st0" points="242.8,50.3 185.7,107.5 184.3,106 184.3,106 241.4,48.9 "/>
<rect x="177.4" y="80.8" transform="matrix(0.7072 -0.707 0.707 0.7072 5.5546 178.1666)" class="st0" width="80.9" height="3.1"/>
<polygon class="st0" points="251.7,59.2 194.6,116.3 193.1,114.9 250.3,57.8 "/>
<rect x="185.8" y="89.9" transform="matrix(0.7072 -0.707 0.707 0.7072 2.0522 186.4799)" class="st0" width="80.8" height="1.6"/>
<polygon class="st0" points="260.9,68.4 203.8,125.6 201.6,123.4 258.8,66.3 "/>
<rect x="195.2" y="99.4" transform="matrix(0.7071 -0.7071 0.7071 0.7071 -1.867 195.9176)" class="st0" width="80.8" height="1.6"/>
<rect x="199.6" y="103.7" transform="matrix(0.7072 -0.707 0.707 0.7072 -3.6298 200.2806)" class="st0" width="80.8" height="1.6"/>
<rect x="204.2" y="108.3" transform="matrix(0.7071 -0.7071 0.7071 0.7071 -5.5151 204.8802)" class="st0" width="80.8" height="1.6"/>
<rect x="209.9" y="113.3" transform="matrix(0.7071 -0.7071 0.7071 0.7071 -7.8772 210.5976)" class="st0" width="80.8" height="3.1"/>
<rect x="214" y="118.1" transform="matrix(0.7071 -0.7071 0.7071 0.7071 -9.592 214.7478)" class="st0" width="80.8" height="1.6"/>
<rect x="218.1" y="122.6" transform="matrix(0.7071 -0.7071 0.7071 0.7071 -11.3244 218.8455)" class="st0" width="80.8" height="1"/>
<rect x="220.5" y="124.9" transform="matrix(0.7072 -0.707 0.707 0.7072 -12.289 221.1831)" class="st0" width="80.8" height="1"/>
<rect x="222.5" y="127" transform="matrix(0.707 -0.7072 0.7072 0.707 -13.141 223.3036)" class="st0" width="80.8" height="1"/>
<rect x="226.5" y="130.8" transform="matrix(0.7071 -0.7071 0.7071 0.7071 -14.7054 227.1629)" class="st0" width="80.8" height="1"/>
<rect x="228.6" y="133" transform="matrix(0.7072 -0.707 0.707 0.7072 -15.6049 229.2615)" class="st0" width="80.8" height="1"/>
<rect x="232.3" y="135.7" transform="matrix(0.7071 -0.7071 0.7071 0.7071 -17.1701 233.0326)" class="st0" width="80.8" height="3.1"/>
<rect x="238" y="141.4" transform="matrix(0.7071 -0.7071 0.7071 0.7071 -19.5352 238.7528)" class="st0" width="80.8" height="3.1"/>
<path class="st0" d="M345.8,121c-0.9-1.5-2.1-2.7-3.4-4c-3.6-3.5-7.1-7.1-10.6-10.6c-3.8-3.8-7.6-7.5-11.4-11.3
	c-4.2-4.2-8.4-8.4-12.6-12.6c-3.8-3.8-7.7-7.6-11.5-11.3c-4.2-4.2-8.4-8.4-12.6-12.6c-4.7-4.7-9.5-9.3-14.2-14
	c-4.3-4.3-8.5-8.6-12.7-12.8c-5.3-5.3-10.7-10.6-16-15.9c-2.7-2.7-6-4-9.9-3.6c-2.7,0.4-5.1,1.4-7.1,3.3c-6.5,6.6-13,13.1-19.7,19.6
	c-2.2,2.1-2.3,5.7-0.6,7.9c2.6,3.2,3.8,6.9,3.8,11.4c0.1,1.1-0.1,2.7-0.5,4.1c-1.9,6.7-6.2,11.3-12.8,13.6c-3.9,1.4-8,1.1-12-0.2
	c-1.9-0.7-3.8-1.7-5.4-3c-2.2-1.7-5-1.3-6.9,0.7c-6.4,6.6-13,13-19.5,19.5c-2.2,2.2-3.3,4.9-3.7,8c-0.2,1.6,0.4,3.1,0.6,4.6
	c0.4,1.6,1.3,3,2.4,4.1l3.2,3.2c-0.1,0.2-0.2,0.4-0.3,0.7v2.2c0.1,0.1,0.1,0.2,0.2,0.3c0.6,1,0.9,2.3,1.7,3.1
	c34.6,34.5,69.1,69,103.7,103.5c2.7,2.7,7.4,2.7,10,0l19.9-19.8l0.7-0.6c-1-1.7-1.8-3.5-2.4-5.4l3.8-3.8c2.1-2.1,2.3-4.8,1.1-6.6
	c-1.7-2.6-2.6-5.5-2.8-8.6c0.7-1.2,1.5-2.3,2.4-3.4c4.3-5.1,9.9-8,16.5-8.5c5.1-0.4,9.8,0.9,14.2,3.6c0.2-0.3,0.4-0.6,0.6-0.8
	c6.4-6.5,13-12.9,19.4-19.4c0.6-0.6,1.2-1.4,1.6-2.1c1.3-2.1,1.3-5.1-0.2-7.1c2.1-2.1,3.6-4.6,4.1-7.7
	C347.7,125.9,347.2,123.3,345.8,121z M342.6,128.2L342.6,128.2c-0.2,1.4-0.9,2.6-1.9,3.7c-6.3,6.3-12.6,12.6-19,18.9
	c-0.5,0.5-1,0.9-1.4,1.4c-0.3,0.3-0.5,0.4-0.9,0.1c-2.4-1.4-5-2.4-7.7-2.8c-2.2-0.4-4.2-0.6-6.4-0.3c-3.4,0.4-6.7,1.5-9.7,3.2
	c-2.8,1.6-5.1,3.8-7,6.3c-2.3,3-3.8,6.5-4.4,10.3c-0.3,2-0.6,4-0.3,6.1c0.4,3.4,1.2,6.6,3.1,9.6c0.3,0.5,0.2,0.8-0.2,1.1
	c-6.6,6.6-13.2,13.2-19.9,19.8c-3.1,3-7.3,3-10.3-0.1l-18.4-18.3l-83.8-83.6c-1.3-1.3-2.5-2.6-2.9-4.5c-0.5-2.5,0.2-4.6,2-6.4
	l17.5-17.4l2.2-2.1c0.4-0.4,0.7-0.5,1.2-0.1c3.1,2.3,6.7,3.8,10.5,4.4c3.2,0.5,6.5,0.4,9.6-0.4c3-0.7,5.8-2.1,8.2-3.9
	c1.6-1.1,3-2.5,4.2-4c2.3-2.7,3.9-5.8,4.7-9.2c0.5-2,0.9-3.9,0.9-6.6c-0.2-4.8-1.8-9.5-4.7-13.4c-0.4-0.5-0.4-0.8,0.1-1.2l20-19.9
	c2.3-2.2,6.7-2.8,10,0.5c6.1,6.1,12.2,12.1,18.2,18.2l84,83.8C341.9,123.3,343,125.4,342.6,128.2z"/>
<polygon class="st0" points="242.8,50.3 185.7,107.5 184.3,106 184.3,106 241.4,48.9 "/>
<rect x="177.4" y="80.8" transform="matrix(0.7072 -0.707 0.707 0.7072 5.5546 178.1666)" class="st0" width="80.9" height="3.1"/>
<polygon class="st0" points="251.7,59.2 194.6,116.3 193.1,114.9 250.3,57.8 "/>
<rect x="185.8" y="89.9" transform="matrix(0.7072 -0.707 0.707 0.7072 2.0522 186.4799)" class="st0" width="80.8" height="1.6"/>
<polygon class="st0" points="260.9,68.4 203.8,125.6 201.6,123.4 258.8,66.3 "/>
<rect x="195.2" y="99.4" transform="matrix(0.7071 -0.7071 0.7071 0.7071 -1.867 195.9176)" class="st0" width="80.8" height="1.6"/>
<rect x="199.6" y="103.7" transform="matrix(0.7072 -0.707 0.707 0.7072 -3.6298 200.2806)" class="st0" width="80.8" height="1.6"/>
<rect x="204.2" y="108.3" transform="matrix(0.7071 -0.7071 0.7071 0.7071 -5.5151 204.8802)" class="st0" width="80.8" height="1.6"/>
<rect x="209.9" y="113.3" transform="matrix(0.7071 -0.7071 0.7071 0.7071 -7.8772 210.5976)" class="st0" width="80.8" height="3.1"/>
<rect x="214" y="118.1" transform="matrix(0.7071 -0.7071 0.7071 0.7071 -9.592 214.7478)" class="st0" width="80.8" height="1.6"/>
<rect x="218.1" y="122.6" transform="matrix(0.7071 -0.7071 0.7071 0.7071 -11.3244 218.8455)" class="st0" width="80.8" height="1"/>
<rect x="220.5" y="124.9" transform="matrix(0.7072 -0.707 0.707 0.7072 -12.289 221.1831)" class="st0" width="80.8" height="1"/>
<rect x="222.5" y="127" transform="matrix(0.707 -0.7072 0.7072 0.707 -13.141 223.3036)" class="st0" width="80.8" height="1"/>
<rect x="226.5" y="130.8" transform="matrix(0.7071 -0.7071 0.7071 0.7071 -14.7054 227.1629)" class="st0" width="80.8" height="1"/>
<rect x="228.6" y="133" transform="matrix(0.7072 -0.707 0.707 0.7072 -15.6049 229.2615)" class="st0" width="80.8" height="1"/>
<rect x="232.3" y="135.7" transform="matrix(0.7071 -0.7071 0.7071 0.7071 -17.1701 233.0326)" class="st0" width="80.8" height="3.1"/>
<rect x="238" y="141.4" transform="matrix(0.7071 -0.7071 0.7071 0.7071 -19.5352 238.7528)" class="st0" width="80.8" height="3.1"/>
<path id="Rectangle-path" class="st0" d="M297.2,104.5l-57.1,57.1l0.7,0.7l57.1-57.1L297.2,104.5z M289.1,96.5L232,153.6l0.7,0.7
	l57.1-57.1L289.1,96.5z M295.1,102.4l-57.1,57.1l0.7,0.7l57.1-57.1L295.1,102.4z M291.2,98.6L234,155.7l0.7,0.7l57.1-57.1
	L291.2,98.6z M286.7,94.2l-57.1,57.1l0.7,0.7l57.1-57.1L286.7,94.2z M282.4,89.8l-57.1,57.1l1.2,1.2L283.6,91L282.4,89.8z
	 M272.5,79.9l-57.1,57.1l1.2,1.2l57.1-57.1L272.5,79.9z M268,75.4l-57.1,57.1l1.2,1.2l57.1-57.1L268,75.4z M263.5,71.1l-57.1,57.1
	l1.2,1.2l57.1-57.1L263.5,71.1z M254.1,61.6L197,118.7l1.2,1.2l57.1-57.1L254.1,61.6z M241.4,48.9L184.3,106h0l1.4,1.4l57.1-57.1
	L241.4,48.9z M250.3,57.8l-57.1,57.1l1.4,1.4l57.1-57.1L250.3,57.8z M258.8,66.3l-57.1,57.1l2.2,2.2l57.1-57.1L258.8,66.3z
	 M305.9,113.3l-57.1,57.1l2.2,2.2l57.1-57.1L305.9,113.3z M300.2,107.6l-57.1,57.1l2.2,2.2l57.1-57.1L300.2,107.6z M277.8,85.2
	l-57.1,57.1l2.2,2.2l57.1-57.1L277.8,85.2z M245.4,52.7l-57.2,57.2l2.2,2.2l57.2-57.2L245.4,52.7z"/>
</svg>
